<svg xmlns="http://www.w3.org/2000/svg" width="327" height="296.025" viewBox="0 0 327 296.025">
  <g id="_404_error" data-name="404_error" transform="translate(11191 -3540)">
    <g id="Group_5746" data-name="Group 5746">
      <g id="Group_5739" data-name="Group 5739" transform="translate(-11191 3588.925)">
        <text id="_4" data-name="4" transform="translate(0 169.075)" fill="#5d6fba" font-size="202" font-family="SegoeUI, Segoe UI"><tspan x="0" y="0">4</tspan></text>
        <text id="_4-2" data-name="4" transform="translate(218 169.075)" fill="#5d6fba" font-size="202" font-family="SegoeUI, Segoe UI"><tspan x="0" y="0">4</tspan></text>
      </g>
      <path id="Path_6549" data-name="Path 6549" d="M222.31,67.37a56.71,56.71,0,0,0-34.29-39.4,56.808,56.808,0,0,1-52.77,99.86,56.7,56.7,0,0,0,36.44,9.59l3.68,15.14a8.093,8.093,0,0,0-2.33,7.83l9.1,37.46.31,1.28,1.51,6.21a9.606,9.606,0,1,0,18.67-4.53l-1.51-6.21-.48-1.96-7.36-30.31-.47-1.96-1.1-4.52a8.114,8.114,0,0,0-5.67-5.89l-3.52-14.51A56.8,56.8,0,0,0,222.31,67.37Z" transform="translate(-11191 3588.925)" fill="#5d6fba" opacity="0.4"/>
      <path id="Path_6550" data-name="Path 6550" d="M109.7,94.58a56.805,56.805,0,0,1,83.43-62.71,56.808,56.808,0,1,0-65.18,92.44A56.583,56.583,0,0,1,109.7,94.58Z" transform="translate(-11191 3588.925)" fill="#afcdea" opacity="0.7"/>
      <rect id="Rectangle_309" data-name="Rectangle 309" width="10.98" height="41.97" transform="matrix(0.972, -0.236, 0.236, 0.972, -11027.02, 3719.392)" fill="#5f91d9"/>
      <path id="Path_6551" data-name="Path 6551" d="M175.39,147.87l-2.88.7a8.131,8.131,0,0,0-5.98,9.81l10.92,44.95a9.606,9.606,0,1,0,18.67-4.53L185.2,153.85A8.124,8.124,0,0,0,175.39,147.87Z" transform="translate(-11191 3588.925)" fill="#47549b"/>
      <path id="Path_6552" data-name="Path 6552" d="M174.14,148.17l-1.63.4a8.131,8.131,0,0,0-5.98,9.81l10.92,44.95a9.605,9.605,0,0,0,11.6,7.07c.06-.02.13-.04.19-.06Z" transform="translate(-11191 3588.925)" fill="#5d6fba"/>
      <g id="Group_5741" data-name="Group 5741" transform="translate(-11191 3588.925)">
        <path id="Path_6553" data-name="Path 6553" d="M169.81,131.16a57.783,57.783,0,1,1,42.51-69.79A57.85,57.85,0,0,1,169.81,131.16ZM144.31,26.19a50.24,50.24,0,1,0,60.68,36.96A50.3,50.3,0,0,0,144.31,26.19Z" fill="#5f91d9"/>
      </g>
      <path id="Path_6554" data-name="Path 6554" d="M176.03,133.52l-1.37-5.64-10.67,2.59,1.37,5.64c1.8-.26,3.6-.6,5.4-1.04S174.31,134.11,176.03,133.52Z" transform="translate(-11191 3588.925)" fill="#47549b"/>
      <g id="Group_5742" data-name="Group 5742" transform="translate(-11191 3588.925)">
        <path id="Path_6555" data-name="Path 6555" d="M169.81,131.16a57.783,57.783,0,1,1,42.51-69.79A57.85,57.85,0,0,1,169.81,131.16ZM144.31,26.19a50.24,50.24,0,1,0,60.68,36.96A50.3,50.3,0,0,0,144.31,26.19Z" fill="#5f91d9"/>
      </g>
      <g id="Group_5743" data-name="Group 5743" transform="translate(-11191 3588.925)" opacity="0.6">
        <path id="Path_6556" data-name="Path 6556" d="M144.31,26.19a50.24,50.24,0,1,0,60.68,36.96A50.3,50.3,0,0,0,144.31,26.19Z" fill="#dceaf9"/>
      </g>
      <g id="Group_5745" data-name="Group 5745" transform="translate(-11191 3588.925)">
        <g id="Group_5744" data-name="Group 5744">
          <path id="Path_6557" data-name="Path 6557" d="M118.2,88.2a3.028,3.028,0,0,1-3.65-2.22,42.913,42.913,0,0,1,31.53-51.77,3.021,3.021,0,0,1,1.43,5.87,36.861,36.861,0,0,0-27.09,44.47A3.019,3.019,0,0,1,118.2,88.2Z" fill="#fff"/>
        </g>
      </g>
      <rect id="Rectangle_310" data-name="Rectangle 310" width="19.21" height="2.01" transform="matrix(0.972, -0.236, 0.236, 0.972, -11023.389, 3751.819)" fill="#fff"/>
      <rect id="Rectangle_311" data-name="Rectangle 311" width="19.21" height="2.01" transform="matrix(0.972, -0.236, 0.236, 0.972, -11015.55, 3784.076)" fill="#fff"/>
    </g>
    <text id="PAGE_NOT_FOUND" data-name="PAGE NOT FOUND" transform="translate(-11092 3832.025)" fill="#47549b" font-size="15" font-family="OpenSans, Open Sans"><tspan x="0" y="0">PAGE NOT FOUND</tspan></text>
  </g>
</svg>
