<svg xmlns="http://www.w3.org/2000/svg" width="50.237" height="44.975" viewBox="0 0 50.237 44.975">
  <g id="add_user" transform="translate(-3587 -1248.347)">
    <path id="Path_6546" data-name="Path 6546" d="M45.049,39.4A11.949,11.949,0,1,0,33.1,27.449,11.98,11.98,0,0,0,45.049,39.4Zm0-21.07a9.121,9.121,0,1,1-9.121,9.121A9.143,9.143,0,0,1,45.049,18.328Z" transform="translate(3562.949 1232.847)" fill="#707070"/>
    <path id="Path_6547" data-name="Path 6547" d="M41.3,52.8a21,21,0,0,0-21,21h2.828a18.171,18.171,0,1,1,36.342,0H62.3A21,21,0,0,0,41.3,52.8Z" transform="translate(3566.7 1219.523)" fill="#707070"/>
    <path id="Path_6548" data-name="Path 6548" d="M69.081,1009.307a.967.967,0,0,0-.861.982v5.319H62.9a.8.8,0,0,0-.091,0,.968.968,0,1,0,.091,1.934H68.22v5.319a.967.967,0,1,0,1.934,0v-5.319h5.32a.967.967,0,0,0,0-1.935h-5.32v-5.319a.967.967,0,0,0-1.073-.982Z" transform="translate(3560.797 253.283)" fill="#707070"/>
  </g>
</svg>
