<!-- Generated by IcoMoon.io -->
<svg version="1.1" xmlns="http://www.w3.org/2000/svg" width="32" height="32" viewBox="0 0 32 32">
<title>dashboard_disabled</title>
<path fill="none" stroke="#0074E0" stroke-linejoin="miter" stroke-linecap="butt" stroke-miterlimit="4" stroke-width="1.6" d="M19.2 3.2h6.4c0.884 0 1.6 0.716 1.6 1.6v11.2c0 0.884-0.716 1.6-1.6 1.6h-6.4c-0.884 0-1.6-0.716-1.6-1.6v-11.2c0-0.884 0.716-1.6 1.6-1.6z"></path>
<path fill="none" stroke="#0074E0" stroke-linejoin="miter" stroke-linecap="butt" stroke-miterlimit="4" stroke-width="1.6" d="M6.4 16h6.4c0.884 0 1.6 0.716 1.6 1.6v11.2c0 0.884-0.716 1.6-1.6 1.6h-6.4c-0.884 0-1.6-0.716-1.6-1.6v-11.2c0-0.884 0.716-1.6 1.6-1.6z"></path>
<path fill="none" stroke="#0074E0" stroke-linejoin="miter" stroke-linecap="butt" stroke-miterlimit="4" stroke-width="1.6" d="M6.4 3.2h6.4c0.884 0 1.6 0.716 1.6 1.6v6.4c0 0.884-0.716 1.6-1.6 1.6h-6.4c-0.884 0-1.6-0.716-1.6-1.6v-6.4c0-0.884 0.716-1.6 1.6-1.6z"></path>
<path fill="none" stroke="#0074E0" stroke-linejoin="miter" stroke-linecap="butt" stroke-miterlimit="4" stroke-width="1.6" d="M19.2 20.8h6.4c0.884 0 1.6 0.716 1.6 1.6v6.4c0 0.884-0.716 1.6-1.6 1.6h-6.4c-0.884 0-1.6-0.716-1.6-1.6v-6.4c0-0.884 0.716-1.6 1.6-1.6z"></path>
</svg>
