<svg xmlns="http://www.w3.org/2000/svg" width="223" height="223" viewBox="0 0 223 223"><defs><style>.a{fill:#e1effa;}.b{fill:#bcd4e8;}.c{fill:#5d6d7e;}.d{fill:#ff8e31;}.e{fill:#fece59;}.f{fill:#34495e;}.g{fill:#cee2f2;}.h{fill:#fff;}</style></defs><circle class="a" cx="111.5" cy="111.5" r="111.5"/><path class="b" d="M198.613,140.031c-.056-.057-.131-.128-.187-.184a41.418,41.418,0,0,0-59.85,57.231c.019.037.057.057.092.091l2.618,2.619c.04.039.054.072.092.091l86.045,86.061a111.736,111.736,0,0,0,58.534-58.553Z" transform="translate(-72.216 -72.215)"/><path class="c" d="M281.116,287.515l2.74,2.741,3.2,3.187,1.235,1.244,6.393-6.4-7.167-7.179Z" transform="translate(-158.838 -158.835)"/><path class="d" d="M310.475,297.518l22.06,22.059a9.163,9.163,0,0,1-12.956,12.961L297.52,310.476Z" transform="translate(-168.106 -168.105)"/><path class="e" d="M320.3,302.194h0l1.793-1.8L344.16,322.46a7.409,7.409,0,0,1,0,10.454,1.3,1.3,0,0,1-.9.366,1.264,1.264,0,0,1-.9-2.159,4.861,4.861,0,0,0,.007-6.867Z" transform="translate(-180.98 -169.732)"/><g transform="translate(55.595 55.595)"><path class="f" d="M295.035,307.995l12.956-12.959-.967-.969a3.21,3.21,0,0,0-4.536,0l-8.425,8.429a3.2,3.2,0,0,0,0,4.528Z" transform="translate(-221.216 -221.218)"/><path class="f" d="M127.811,169.229a41.421,41.421,0,1,1,41.42,41.427A41.421,41.421,0,0,1,127.811,169.229Z" transform="translate(-127.811 -127.811)"/></g><path class="c" d="M175.054,211.994a36.936,36.936,0,1,0-36.937-36.939A36.939,36.939,0,0,0,175.054,211.994Z" transform="translate(-78.04 -78.042)"/><path class="g" d="M178.895,212.875a33.981,33.981,0,1,0-33.981-33.983A33.98,33.98,0,0,0,178.895,212.875Z" transform="translate(-81.88 -81.88)"/><g transform="translate(67.219 67.274)"><path class="h" d="M202.577,156a3.011,3.011,0,0,0-2.668-1.334,29.563,29.563,0,0,0-13.174,3.957,3,3,0,1,0,3.009,5.183,23.747,23.747,0,0,1,10.517-3.151,2.977,2.977,0,0,0,2.812-3.152A2.838,2.838,0,0,0,202.577,156Z" transform="translate(-171.887 -154.662)"/><path class="h" d="M165.985,178.668a3.074,3.074,0,0,0-.6-.65,2.985,2.985,0,0,0-4.212.438A29.7,29.7,0,0,0,156.74,208.4a3,3,0,0,0,5.555-2.274,23.8,23.8,0,0,1,3.539-23.9A3,3,0,0,0,165.985,178.668Z" transform="translate(-154.535 -167.477)"/></g></svg>