<!-- Generated by IcoMoon.io -->
<svg version="1.1" xmlns="http://www.w3.org/2000/svg" width="32" height="32" viewBox="0 0 32 32">
<title>sucess_active</title>
<path fill="#107c10" d="M20.56 11.81l0.878 0.878-7.312 7.312-3.566-3.56 0.878-0.878 2.686 2.686zM16 6c0.009-0 0.020-0 0.032-0 0.934 0 1.838 0.13 2.694 0.373l-0.069-0.017c0.913 0.252 1.71 0.594 2.448 1.026l-0.048-0.026c0.77 0.453 1.435 0.971 2.026 1.562l0 0c0.591 0.591 1.109 1.256 1.537 1.98l0.025 0.046c0.406 0.69 0.748 1.487 0.983 2.329l0.017 0.071c0.226 0.787 0.356 1.69 0.356 2.624 0 0.011-0 0.022-0 0.033v-0.002c0 0.009 0 0.021 0 0.032 0 0.934-0.13 1.838-0.373 2.694l0.017-0.069c-0.252 0.913-0.594 1.71-1.026 2.448l0.026-0.048c-0.453 0.77-0.971 1.435-1.562 2.026l-0 0c-0.591 0.591-1.256 1.109-1.98 1.537l-0.046 0.025c-0.69 0.406-1.487 0.748-2.329 0.983l-0.071 0.017c-0.787 0.226-1.69 0.356-2.624 0.356-0.011 0-0.022-0-0.033-0h0.002c-0.009 0-0.021 0-0.032 0-0.934 0-1.838-0.13-2.694-0.373l0.069 0.017c-0.913-0.252-1.71-0.594-2.448-1.026l0.048 0.026c-0.77-0.453-1.435-0.971-2.026-1.562l-0-0c-0.591-0.591-1.109-1.256-1.537-1.98l-0.025-0.046c-0.405-0.686-0.746-1.48-0.983-2.317l-0.017-0.071c-0.226-0.786-0.356-1.689-0.356-2.622 0-0.016 0-0.032 0-0.048v0.002c-0-0.009-0-0.021-0-0.032 0-0.934 0.13-1.838 0.373-2.694l-0.017 0.069c0.252-0.913 0.594-1.71 1.026-2.448l-0.026 0.048c0.453-0.77 0.971-1.435 1.562-2.026l0-0c0.591-0.591 1.256-1.109 1.98-1.537l0.046-0.025c0.686-0.405 1.479-0.746 2.317-0.983l0.071-0.017c0.786-0.226 1.689-0.356 2.622-0.356 0.016 0 0.032 0 0.048 0h-0.002zM16 24.75c0.008 0 0.018 0 0.028 0 0.816 0 1.605-0.114 2.353-0.327l-0.060 0.015c0.791-0.224 1.482-0.526 2.12-0.906l-0.040 0.022c0.673-0.399 1.255-0.854 1.772-1.372l0-0c0.523-0.52 0.98-1.105 1.36-1.742l0.022-0.040c0.358-0.599 0.66-1.291 0.869-2.022l0.015-0.062c0.198-0.686 0.312-1.475 0.312-2.29 0-0.009 0-0.018-0-0.027v0.001c0-0.008 0-0.018 0-0.028 0-0.816-0.114-1.605-0.327-2.353l0.015 0.060c-0.224-0.791-0.526-1.482-0.906-2.12l0.022 0.040c-0.399-0.673-0.854-1.255-1.372-1.772l-0-0c-0.52-0.523-1.105-0.98-1.742-1.36l-0.040-0.022c-0.598-0.358-1.289-0.66-2.018-0.869l-0.062-0.015c-0.687-0.198-1.476-0.312-2.292-0.312-0.010 0-0.019 0-0.029 0h0.002c-0.008-0-0.018-0-0.028-0-0.816 0-1.605 0.114-2.353 0.327l0.060-0.015c-0.795 0.223-1.489 0.525-2.13 0.906l0.040-0.022c-0.673 0.399-1.255 0.854-1.772 1.372l-0 0c-0.518 0.517-0.973 1.099-1.35 1.732l-0.022 0.040c-0.359 0.601-0.661 1.295-0.869 2.028l-0.015 0.062c-0.198 0.687-0.312 1.476-0.312 2.292 0 0.010 0 0.019 0 0.029v-0.002c-0 0.008-0 0.018-0 0.028 0 0.816 0.114 1.605 0.327 2.353l-0.015-0.060c0.224 0.791 0.526 1.482 0.906 2.12l-0.022-0.040c0.399 0.673 0.854 1.255 1.372 1.772l0 0c0.517 0.518 1.099 0.973 1.732 1.35l0.040 0.022c0.599 0.358 1.291 0.66 2.022 0.869l0.062 0.015c0.697 0.204 1.498 0.322 2.326 0.322 0 0 0 0 0 0h-0z"></path>
</svg>
