<svg xmlns="http://www.w3.org/2000/svg" xmlns:xlink="http://www.w3.org/1999/xlink" width="68.162" height="30.113" viewBox="0 0 68.162 30.113">
  <defs>
    <linearGradient id="linear-gradient" x1="0.695" y1="-0.586" x2="0.5" y2="1" gradientUnits="objectBoundingBox">
      <stop offset="0" stop-color="#358ccb"/>
      <stop offset="1" stop-color="#43779e"/>
    </linearGradient>
  </defs>
  <g id="sucess" transform="translate(-747.793 -354.074)">
    <circle id="Oval_15" data-name="Oval 15" cx="2.264" cy="2.264" r="2.264" transform="translate(767.642 365.986)" fill="none" stroke="#8954ba" stroke-miterlimit="10" stroke-width="2"/>
    <circle id="Oval_15_Copy_2" data-name="Oval 15 Copy 2" cx="1.647" cy="1.647" r="1.647" transform="translate(770.935 380.394)" fill="none" stroke="#8954ba" stroke-miterlimit="10" stroke-width="1"/>
    <circle id="Oval_15_Copy_3" data-name="Oval 15 Copy 3" cx="1.647" cy="1.647" r="1.647" transform="translate(800.162 374.631)" fill="none" stroke="#8954ba" stroke-miterlimit="10" stroke-width="1"/>
    <circle id="Oval_15_Copy_6" data-name="Oval 15 Copy 6" cx="1.029" cy="1.029" r="1.029" transform="translate(809.219 363.104)" fill="none" stroke="#8954ba" stroke-miterlimit="10" stroke-width="2"/>
    <circle id="Oval_15_Copy_5" data-name="Oval 15 Copy 5" cx="2.058" cy="2.058" r="2.058" transform="translate(792.753 378.336)" fill="none" stroke="#f13b9a" stroke-miterlimit="10" stroke-width="2"/>
    <circle id="Oval_15_Copy_4" data-name="Oval 15 Copy 4" cx="0.617" cy="0.617" r="0.617" transform="translate(797.281 368.868)" fill="none" stroke="#8954ba" stroke-miterlimit="10" stroke-width="1"/>
    <circle id="Oval_15_Copy" data-name="Oval 15 Copy" cx="0.823" cy="0.823" r="0.823" transform="translate(758.997 374.631)" fill="none" stroke="#fc41b6" stroke-miterlimit="10" stroke-width="2"/>
    <path id="Line_20" data-name="Line 20" d="M.5,5.355,5.166.689" transform="translate(748 367.175)" fill="none" stroke="#ef2596" stroke-linecap="square" stroke-miterlimit="10" stroke-width="1"/>
    <path id="Line_21" data-name="Line 21" d="M.5,3.619,3.8.32" transform="translate(811.448 373.042)" fill="none" stroke="#fc8e2f" stroke-linecap="square" stroke-miterlimit="10" stroke-width="1"/>
    <path id="Line_22" data-name="Line 22" d="M.5,2.607,2.13.977" transform="translate(763.346 379.071)" fill="none" stroke="#979797" stroke-linecap="square" stroke-miterlimit="10" stroke-width="1"/>
    <path id="Line_23" data-name="Line 23" d="M0,4.173,4.173,0" transform="translate(777.125 354.781)" fill="none" stroke="#c5c5c5" stroke-linecap="square" stroke-miterlimit="10" stroke-width="1"/>
    <rect id="Rectangle_37" data-name="Rectangle 37" width="3.935" height="9.837" rx="1" transform="translate(774.495 372.532) rotate(-45)" fill="url(#linear-gradient)"/>
    <rect id="Rectangle_38" data-name="Rectangle 38" width="18.887" height="3.935" rx="1" transform="translate(778.669 376.706) rotate(-45)" fill="url(#linear-gradient)"/>
  </g>
</svg>
