<!-- Generated by IcoMoon.io -->
<svg version="1.1" xmlns="http://www.w3.org/2000/svg" width="32" height="32" viewBox="0 0 32 32">
<title>user_manager_disabled</title>
<path fill="#707070" d="M16.286 16.274c3.61 0 6.536-2.926 6.536-6.536s-2.926-6.536-6.536-6.536c-3.609 0-6.535 2.925-6.536 6.534v0c0.013 3.605 2.931 6.524 6.535 6.538h0.001zM16.286 4.754c2.755 0 4.989 2.234 4.989 4.989s-2.234 4.989-4.989 4.989c-2.755 0-4.989-2.234-4.989-4.989v0c0.004-2.755 2.234-4.988 4.988-4.995h0.001z"></path>
<path fill="#707070" d="M16.288 16.315c-6.344 0.001-11.487 5.144-11.488 11.488v0h1.547c0.071-5.436 4.494-9.815 9.94-9.815s9.869 4.379 9.94 9.808l0 0.007h1.547c-0.001-6.344-5.143-11.486-11.486-11.488h-0z"></path>
</svg>
