<svg xmlns="http://www.w3.org/2000/svg" width="36.727" height="33.124" viewBox="0 0 36.727 33.124">
  <g id="valq_short_logo" transform="translate(-794 -245.147)">
    <path id="Path_6192" data-name="Path 6192" d="M413.536,31.028a4.9,4.9,0,0,0-.735,2.989,2,2,0,0,1-.984,1.889l-2.651,1.54,1,1.724,2.651-1.54a2.014,2.014,0,0,1,2.14.088,4.918,4.918,0,1,0-1.421-6.69Z" transform="translate(408.099 216.423)" fill="#f9c11a"/>
    <path id="Path_6193" data-name="Path 6193" d="M417.823,285.308a4.9,4.9,0,0,0-2.958.85,2,2,0,0,1-2.128.086l-2.655-1.533-1,1.726,2.655,1.533a2.015,2.015,0,0,1,.989,1.9,4.918,4.918,0,1,0,5.095-4.562Z" transform="translate(408.176 -24.617)" fill="#368ccb"/>
    <path id="Path_6194" data-name="Path 6194" d="M187.552,418a4.9,4.9,0,0,0-2.958.85,2,2,0,0,1-2.128.086l-2.655-1.533-1,1.726,2.655,1.533a2.015,2.015,0,0,1,.989,1.9A4.918,4.918,0,1,0,187.552,418Z" transform="translate(625.001 -149.564)" fill="#ec1274"/>
    <path id="Path_6195" data-name="Path 6195" d="M183.19,163.719a4.9,4.9,0,0,0-.735,2.989,2,2,0,0,1-.984,1.889l-2.651,1.54,1,1.724,2.651-1.54a2.014,2.014,0,0,1,2.14.088,4.918,4.918,0,1,0-1.421-6.689Z" transform="translate(624.995 91.48)" fill="#f37f20"/>
    <circle id="Ellipse_49" data-name="Ellipse 49" cx="4.918" cy="4.918" r="4.918" transform="translate(820.891 245.147)" fill="#f9c11a"/>
    <circle id="Ellipse_50" data-name="Ellipse 50" cx="4.918" cy="4.918" r="4.918" transform="translate(794 260.672)" fill="#23af9f"/>
    <circle id="Ellipse_51" data-name="Ellipse 51" cx="4.918" cy="4.918" r="4.918" transform="translate(807.445 252.909)" fill="#f37f20"/>
    <circle id="Ellipse_52" data-name="Ellipse 52" cx="4.918" cy="4.918" r="4.918" transform="translate(820.891 260.672)" fill="#368ccb"/>
    <circle id="Ellipse_53" data-name="Ellipse 53" cx="4.918" cy="4.918" r="4.918" transform="translate(807.445 268.435)" fill="#ec1274"/>
  </g>
</svg>
