<svg xmlns="http://www.w3.org/2000/svg" width="108.632" height="33.357" viewBox="0 0 108.632 33.357">
  <g id="valq_long_logo" transform="translate(-10.732 -24.733)">
    <path id="Path_6192" data-name="Path 6192" d="M413.536,31.028a4.9,4.9,0,0,0-.735,2.989,2,2,0,0,1-.984,1.889l-2.651,1.54,1,1.724,2.651-1.54a2.014,2.014,0,0,1,2.14.088,4.918,4.918,0,1,0-1.421-6.69Z" transform="translate(-375.168 -3.758)" fill="#f9c11a"/>
    <path id="Path_6193" data-name="Path 6193" d="M417.823,285.308a4.9,4.9,0,0,0-2.958.85,2,2,0,0,1-2.128.086l-2.655-1.533-1,1.726,2.655,1.533a2.015,2.015,0,0,1,.989,1.9,4.918,4.918,0,1,0,5.095-4.562Z" transform="translate(-375.092 -244.798)" fill="#368ccb"/>
    <path id="Path_6194" data-name="Path 6194" d="M187.552,418a4.9,4.9,0,0,0-2.958.85,2,2,0,0,1-2.128.086l-2.655-1.533-1,1.726,2.655,1.533a2.015,2.015,0,0,1,.989,1.9A4.918,4.918,0,1,0,187.552,418Z" transform="translate(-158.267 -369.745)" fill="#ec1274"/>
    <path id="Path_6195" data-name="Path 6195" d="M183.19,163.719a4.9,4.9,0,0,0-.735,2.989,2,2,0,0,1-.984,1.889l-2.651,1.54,1,1.724,2.651-1.54a2.014,2.014,0,0,1,2.14.088,4.918,4.918,0,1,0-1.421-6.689Z" transform="translate(-158.272 -128.701)" fill="#f37f20"/>
    <circle id="Ellipse_49" data-name="Ellipse 49" cx="4.918" cy="4.918" r="4.918" transform="translate(37.623 24.966)" fill="#f9c11a"/>
    <circle id="Ellipse_50" data-name="Ellipse 50" cx="4.918" cy="4.918" r="4.918" transform="translate(10.732 40.492)" fill="#23af9f"/>
    <circle id="Ellipse_51" data-name="Ellipse 51" cx="4.918" cy="4.918" r="4.918" transform="translate(24.178 32.729)" fill="#f37f20"/>
    <circle id="Ellipse_52" data-name="Ellipse 52" cx="4.918" cy="4.918" r="4.918" transform="translate(37.623 40.492)" fill="#368ccb"/>
    <circle id="Ellipse_53" data-name="Ellipse 53" cx="4.918" cy="4.918" r="4.918" transform="translate(24.178 48.254)" fill="#ec1274"/>
    <path id="Path_6196" data-name="Path 6196" d="M763.555,235.9h-3.578l-4.6-13.9h3.678l2.658,9.815,2.351-8.587A1.631,1.631,0,0,1,765.7,222h2.554Z" transform="translate(-701.166 -185.748)" fill="#595a5c" fill-rule="evenodd"/>
    <path id="Path_6197" data-name="Path 6197" d="M1010.436,226.865a5.812,5.812,0,0,1-2.247.718,15.63,15.63,0,0,1-2.044.1,4.933,4.933,0,0,1-3.172-1.02,3.985,3.985,0,0,1-1.327-3.375,3.791,3.791,0,0,1,1.227-3.168,6.835,6.835,0,0,1,3.168-1.227c.239-.032.388-.081.614-.1.275-.023.51-.077.817-.1,1.43-.208,2.148-.614,2.148-1.331a1.074,1.074,0,0,0-.817-1.02,3.7,3.7,0,0,0-1.435-.208,3.772,3.772,0,0,0-1.227.208c-.406.1-.609.406-.817.817h-3.371a3.83,3.83,0,0,1,1.43-2.658,5.543,5.543,0,0,1,3.885-1.227,6.85,6.85,0,0,1,4.192,1.024,3.492,3.492,0,0,1,1.43,2.965v4.8a5.94,5.94,0,0,1-.717,3.272,8.02,8.02,0,0,1-1.737,1.534Zm-.817-6.439a13.211,13.211,0,0,1-1.945.713l-1.124.208a3.2,3.2,0,0,0-1.327.713,2.639,2.639,0,0,0-.307,1.128,1.62,1.62,0,0,0,.406,1.223,1.74,1.74,0,0,0,1.331.411A2.94,2.94,0,0,0,1008.8,224a3.277,3.277,0,0,0,.817-2.351Z" transform="translate(-933.054 -177.527)" fill="#595a5c" fill-rule="evenodd"/>
    <path id="Path_6198" data-name="Path 6198" d="M1237.93,25.627h1.841a1.9,1.9,0,0,1,1.227.514,1.687,1.687,0,0,1,.51,1.227V51h-3.475V25.627Z" transform="translate(-1155.541 -0.842)" fill="#595a5c" fill-rule="evenodd"/>
    <g id="Group_5532" data-name="Group 5532" transform="translate(88.636 24.733)">
      <path id="Path_6199" data-name="Path 6199" d="M1357.417,24.733a12.495,12.495,0,1,0,12.495,12.495A12.495,12.495,0,0,0,1357.417,24.733Zm0,21.458a8.963,8.963,0,1,1,8.963-8.963A8.963,8.963,0,0,1,1357.417,46.191Z" transform="translate(-1344.921 -24.733)" fill="#1aabe3"/>
      <path id="Path_6200" data-name="Path 6200" d="M1590.228,310.068l-1.115,1.24a1.807,1.807,0,0,1-2.552.134l-7.654-6.888,1.115-1.24a1.807,1.807,0,0,1,2.552-.134Z" transform="translate(-1565.244 -286.484)" fill="#1aabe3"/>
    </g>
    <g id="Group_5533" data-name="Group 5533" transform="translate(51.459 54.464)">
      <path id="Path_6201" data-name="Path 6201" d="M711.343,534.978l.318,2.639a2.614,2.614,0,0,1,.036.363h-.551l-.206-1.716-.054-.6h-.018l-.556,2.317H709.6l-.439-1.721-.125-.6h-.018l-.242,2.321h-.542a3.641,3.641,0,0,1,.045-.408l.309-2.594h.82l.453,1.734.112.565h.022l.529-2.3Z" transform="translate(-708.233 -534.915)" fill="#595a5c"/>
      <path id="Path_6202" data-name="Path 6202" d="M782.75,533.9a1.357,1.357,0,0,1,1.335,1.523,1.437,1.437,0,0,1-1.38,1.6,1.361,1.361,0,0,1-1.34-1.523A1.435,1.435,0,0,1,782.75,533.9Zm-.022.5a.548.548,0,0,0-.412.157,1.235,1.235,0,0,0-.323.91c0,.565.246,1.057.739,1.057a.552.552,0,0,0,.408-.152,1.267,1.267,0,0,0,.318-.919C783.458,534.884,783.216,534.4,782.728,534.4Z" transform="translate(-777.096 -533.903)" fill="#595a5c"/>
      <path id="Path_6203" data-name="Path 6203" d="M845.288,534.133a1.389,1.389,0,0,1,1.483,1.506,1.483,1.483,0,0,1-1.555,1.6,6.734,6.734,0,0,1-.923-.067V534.2A7.347,7.347,0,0,1,845.288,534.133Zm.444,2.464a1.088,1.088,0,0,0,.417-.932c0-.627-.3-1.031-.869-1.031a3.818,3.818,0,0,0-.385.018v2.066c.1.009.215.013.332.013A.906.906,0,0,0,845.731,536.6Z" transform="translate(-836.349 -534.12)" fill="#595a5c"/>
      <path id="Path_6204" data-name="Path 6204" d="M904.951,534.977l-.022.484h-1.25v.748h.99v.479h-.99v.806h1.264l.022.484h-1.886v-3h1.873Z" transform="translate(-891.701 -534.914)" fill="#595a5c"/>
      <path id="Path_6205" data-name="Path 6205" d="M952.361,534.133c.775,0,1.286.3,1.286.914a.978.978,0,0,1-.551.9l.524.928a1.24,1.24,0,0,1,.13.309h-.614l-.587-1.089c-.063,0-.125.009-.188.009s-.166,0-.26-.013v1.093h-.6V534.2A5.9,5.9,0,0,1,952.361,534.133Zm.4,1.411a.457.457,0,0,0,.26-.444c0-.314-.211-.466-.614-.466a2.743,2.743,0,0,0-.309.018v.963c.076,0,.152.009.22.009A.994.994,0,0,0,952.765,535.544Z" transform="translate(-937.297 -534.12)" fill="#595a5c"/>
      <path id="Path_6206" data-name="Path 6206" d="M1006.1,534.978l1.017,1.738.237.506h.009l-.027-.565v-1.68h.533v3h-.65l-1.035-1.765-.224-.47h-.009l.022.511v1.725h-.529v-3Z" transform="translate(-988.091 -534.915)" fill="#595a5c"/>
      <path id="Path_6207" data-name="Path 6207" d="M1112.189,534.133a1.389,1.389,0,0,1,1.483,1.506,1.483,1.483,0,0,1-1.555,1.6,6.734,6.734,0,0,1-.923-.067V534.2A7.36,7.36,0,0,1,1112.189,534.133Zm.444,2.464a1.088,1.088,0,0,0,.417-.932c0-.627-.3-1.031-.869-1.031a3.817,3.817,0,0,0-.385.018v2.066c.1.009.215.013.332.013A.906.906,0,0,0,1112.632,536.6Z" transform="translate(-1087.665 -534.12)" fill="#595a5c"/>
      <path id="Path_6208" data-name="Path 6208" d="M1170.587,534.978v3h-.6v-3Z" transform="translate(-1143.025 -534.915)" fill="#595a5c"/>
      <path id="Path_6209" data-name="Path 6209" d="M1198.115,534.133a1.665,1.665,0,0,1,.847.224l-.21.435a1.469,1.469,0,0,0-.645-.152.743.743,0,0,0-.56.215,1.131,1.131,0,0,0-.3.856c0,.524.21,1.022.847,1.022a2.284,2.284,0,0,0,.336-.031v-1h.556v1.326a2.17,2.17,0,0,1-.945.211,1.344,1.344,0,0,1-1.42-1.47A1.493,1.493,0,0,1,1198.115,534.133Z" transform="translate(-1168.097 -534.12)" fill="#595a5c"/>
      <path id="Path_6210" data-name="Path 6210" d="M1254.917,534.978v3h-.6v-3Z" transform="translate(-1222.431 -534.915)" fill="#595a5c"/>
      <path id="Path_6211" data-name="Path 6211" d="M1281.647,534.978l-.022.488h-.874v2.514h-.6v-2.514h-.874l-.018-.488Z" transform="translate(-1245.917 -534.915)" fill="#595a5c"/>
      <path id="Path_6212" data-name="Path 6212" d="M1326.066,534.824l.874,2.724a1.276,1.276,0,0,1,.063.287h-.578l-.215-.695h-1.017l-.22.695h-.583a1,1,0,0,1,.058-.278l.932-2.715Zm-.726,1.846h.721l-.17-.556-.161-.636h-.018Z" transform="translate(-1288.412 -534.77)" fill="#595a5c"/>
      <path id="Path_6213" data-name="Path 6213" d="M1384.077,534.978v2.514h1.129l.027.488h-1.756v-3Z" transform="translate(-1344.049 -534.915)" fill="#595a5c"/>
      <path id="Path_6214" data-name="Path 6214" d="M1472.354,534.133c.856,0,1.3.336,1.3.968,0,.668-.471,1.116-1.282,1.116-.085,0-.179,0-.269-.013v.981h-.6V534.2A5.488,5.488,0,0,1,1472.354,534.133Zm.416,1.51a.5.5,0,0,0,.264-.493c0-.363-.224-.515-.623-.515a2.508,2.508,0,0,0-.3.018v1.071c.085,0,.161.009.224.009A.89.89,0,0,0,1472.77,535.643Z" transform="translate(-1426.939 -534.12)" fill="#595a5c"/>
      <path id="Path_6215" data-name="Path 6215" d="M1524.517,534.978v2.514h1.129l.027.488h-1.756v-3Z" transform="translate(-1476.289 -534.915)" fill="#595a5c"/>
      <path id="Path_6216" data-name="Path 6216" d="M1565.186,534.824l.874,2.724a1.275,1.275,0,0,1,.063.287h-.578l-.215-.695h-1.017l-.22.695h-.582a.991.991,0,0,1,.058-.278l.932-2.715Zm-.726,1.846h.721l-.17-.556-.161-.636h-.018Z" transform="translate(-1513.57 -534.77)" fill="#595a5c"/>
      <path id="Path_6217" data-name="Path 6217" d="M1623.259,534.978l1.017,1.738.237.506h.009l-.027-.565v-1.68h.533v3h-.65l-1.035-1.765-.224-.47h-.009l.022.511v1.725h-.529v-3Z" transform="translate(-1569.214 -534.915)" fill="#595a5c"/>
      <path id="Path_6218" data-name="Path 6218" d="M1683.73,534.978l1.017,1.738.237.506h.009l-.027-.565v-1.68h.533v3h-.65l-1.035-1.765-.224-.47h-.009l.022.511v1.725h-.529v-3Z" transform="translate(-1626.154 -534.915)" fill="#595a5c"/>
      <path id="Path_6219" data-name="Path 6219" d="M1744.147,534.978v3h-.6v-3Z" transform="translate(-1683.094 -534.915)" fill="#595a5c"/>
      <path id="Path_6220" data-name="Path 6220" d="M1773.44,534.978l1.017,1.738.237.506h.009l-.027-.565v-1.68h.533v3h-.65l-1.035-1.765-.224-.47h-.009l.022.511v1.725h-.529v-3Z" transform="translate(-1710.626 -534.915)" fill="#595a5c"/>
      <path id="Path_6221" data-name="Path 6221" d="M1832.155,534.133a1.665,1.665,0,0,1,.847.224l-.21.435a1.469,1.469,0,0,0-.645-.152.743.743,0,0,0-.56.215,1.13,1.13,0,0,0-.3.856c0,.524.211,1.022.847,1.022a2.286,2.286,0,0,0,.336-.031v-1h.556v1.326a2.17,2.17,0,0,1-.945.211,1.344,1.344,0,0,1-1.42-1.47A1.493,1.493,0,0,1,1832.155,534.133Z" transform="translate(-1765.115 -534.12)" fill="#595a5c"/>
    </g>
  </g>
</svg>
